<svg width="1280" height="720" viewBox="0 0 1280 720" fill="none" xmlns="http://www.w3.org/2000/svg">
  <rect width="1280" height="720" fill="#071018"/>
  <circle cx="190" cy="80" r="260" fill="#22D3EE" fill-opacity="0.16"/>
  <circle cx="1060" cy="64" r="260" fill="#FBBF24" fill-opacity="0.18"/>
  <rect x="84" y="64" width="1112" height="592" rx="28" fill="#0F172A" stroke="#FFFFFF" stroke-opacity="0.12"/>
  <text x="136" y="138" fill="#FFFFFF" font-family="Arial, Helvetica, sans-serif" font-size="56" font-weight="900">Duelo</text>
  <text x="138" y="178" fill="#94A3B8" font-family="Arial, Helvetica, sans-serif" font-size="22" font-weight="700">Visual preference voting with Elo rankings</text>
  <rect x="138" y="226" width="430" height="318" rx="18" fill="#111827" stroke="#22D3EE" stroke-opacity="0.45"/>
  <rect x="712" y="226" width="430" height="318" rx="18" fill="#111827" stroke="#FBBF24" stroke-opacity="0.45"/>
  <rect x="166" y="254" width="374" height="262" rx="14" fill="#1E293B"/>
  <rect x="740" y="254" width="374" height="262" rx="14" fill="#1E293B"/>
  <path d="M220 472L300 372L368 444L424 350L506 472H220Z" fill="#22D3EE" fill-opacity="0.8"/>
  <circle cx="430" cy="326" r="38" fill="#FBBF24"/>
  <path d="M778 452C826 374 872 336 916 338C982 341 1006 408 1080 360V478H778V452Z" fill="#FBBF24" fill-opacity="0.85"/>
  <circle cx="838" cy="316" r="38" fill="#22D3EE"/>
  <rect x="579" y="342" width="122" height="58" rx="29" fill="#FFFFFF" fill-opacity="0.08"/>
  <text x="609" y="380" fill="#FFFFFF" font-family="Arial, Helvetica, sans-serif" font-size="26" font-weight="900">VS</text>
  <text x="174" y="590" fill="#FFFFFF" font-family="Arial, Helvetica, sans-serif" font-size="26" font-weight="900">Choose. Rank. Repeat.</text>
  <text x="174" y="626" fill="#94A3B8" font-family="Arial, Helvetica, sans-serif" font-size="18" font-weight="700">Category mode, custom mix mode, or full chaos.</text>
  <rect x="902" y="574" width="212" height="48" rx="12" fill="#22D3EE"/>
  <text x="932" y="606" fill="#071018" font-family="Arial, Helvetica, sans-serif" font-size="18" font-weight="900">1056 demo images</text>
</svg>
